<mxfile host="app.diagrams.net" modified="2022-08-07T16:05:33.727Z" agent="5.0 (Macintosh; Intel Mac OS X 10_15_7) AppleWebKit/537.36 (KHTML, like Gecko) Chrome/103.0.5060.114 Safari/537.36 OPR/89.0.4447.48" etag="jYaU56MLueAJ-rOvx2Z1" version="20.0.1" type="github">
  <diagram id="bkeCw8k-gttlSstKwu0c" name="Page-1">
    <mxGraphModel dx="964" dy="805" grid="1" gridSize="10" guides="1" tooltips="1" connect="1" arrows="1" fold="1" page="1" pageScale="1" pageWidth="827" pageHeight="1169" math="0" shadow="0">
      <root>
        <mxCell id="0" />
        <mxCell id="1" parent="0" />
        <mxCell id="R6XTG78PX4AQXP1k42IL-11" style="edgeStyle=orthogonalEdgeStyle;rounded=0;orthogonalLoop=1;jettySize=auto;html=1;exitX=0.5;exitY=1;exitDx=0;exitDy=0;fontSize=16;fontFamily=Comic Sans MS;" edge="1" parent="1" source="R6XTG78PX4AQXP1k42IL-2" target="R6XTG78PX4AQXP1k42IL-7">
          <mxGeometry relative="1" as="geometry" />
        </mxCell>
        <mxCell id="R6XTG78PX4AQXP1k42IL-2" value="Machinencode" style="rounded=0;whiteSpace=wrap;html=1;sketch=1;fillColor=#ffe6cc;strokeColor=#d79b00;fontSize=16;fontFamily=Comic Sans MS;" vertex="1" parent="1">
          <mxGeometry x="292" y="330" width="120" height="60" as="geometry" />
        </mxCell>
        <mxCell id="R6XTG78PX4AQXP1k42IL-16" value="JIT-Compiler" style="edgeStyle=orthogonalEdgeStyle;rounded=0;orthogonalLoop=1;jettySize=auto;html=1;exitX=0.5;exitY=1;exitDx=0;exitDy=0;entryX=0.5;entryY=0;entryDx=0;entryDy=0;fontSize=16;fontFamily=Comic Sans MS;" edge="1" parent="1" source="R6XTG78PX4AQXP1k42IL-3" target="R6XTG78PX4AQXP1k42IL-15">
          <mxGeometry relative="1" as="geometry">
            <Array as="points">
              <mxPoint x="602" y="370" />
              <mxPoint x="732" y="370" />
            </Array>
          </mxGeometry>
        </mxCell>
        <mxCell id="R6XTG78PX4AQXP1k42IL-19" value="Bytecode-&lt;br&gt;Interpreter" style="edgeStyle=orthogonalEdgeStyle;rounded=0;orthogonalLoop=1;jettySize=auto;html=1;exitX=0.5;exitY=1;exitDx=0;exitDy=0;fontSize=16;fontFamily=Comic Sans MS;" edge="1" parent="1" source="R6XTG78PX4AQXP1k42IL-3" target="R6XTG78PX4AQXP1k42IL-14">
          <mxGeometry relative="1" as="geometry">
            <mxPoint x="532" y="440" as="targetPoint" />
            <Array as="points">
              <mxPoint x="602" y="370" />
              <mxPoint x="532" y="370" />
              <mxPoint x="532" y="535" />
            </Array>
          </mxGeometry>
        </mxCell>
        <mxCell id="R6XTG78PX4AQXP1k42IL-3" value="Bytecode" style="rounded=0;whiteSpace=wrap;html=1;sketch=1;fillColor=#dae8fc;strokeColor=#6c8ebf;fontSize=16;fontFamily=Comic Sans MS;" vertex="1" parent="1">
          <mxGeometry x="542" y="280" width="120" height="60" as="geometry" />
        </mxCell>
        <mxCell id="R6XTG78PX4AQXP1k42IL-9" value="Compiler" style="edgeStyle=orthogonalEdgeStyle;rounded=0;orthogonalLoop=1;jettySize=auto;html=1;exitX=0.5;exitY=1;exitDx=0;exitDy=0;entryX=0.5;entryY=0;entryDx=0;entryDy=0;fontSize=16;fontFamily=Comic Sans MS;" edge="1" parent="1" source="R6XTG78PX4AQXP1k42IL-4" target="R6XTG78PX4AQXP1k42IL-2">
          <mxGeometry relative="1" as="geometry" />
        </mxCell>
        <mxCell id="R6XTG78PX4AQXP1k42IL-4" value="C Quellcode" style="rounded=0;whiteSpace=wrap;html=1;sketch=1;fillColor=#e1d5e7;strokeColor=#9673a6;fontSize=16;fontFamily=Comic Sans MS;" vertex="1" parent="1">
          <mxGeometry x="292" y="150" width="120" height="60" as="geometry" />
        </mxCell>
        <mxCell id="R6XTG78PX4AQXP1k42IL-7" value="CPU" style="sketch=0;pointerEvents=1;shadow=0;dashed=0;html=1;strokeColor=none;fillColor=#434445;aspect=fixed;labelPosition=center;verticalLabelPosition=bottom;verticalAlign=top;align=center;outlineConnect=0;shape=mxgraph.vvd.cpu;fontSize=16;fontFamily=Comic Sans MS;" vertex="1" parent="1">
          <mxGeometry x="327" y="510" width="50" height="50" as="geometry" />
        </mxCell>
        <mxCell id="R6XTG78PX4AQXP1k42IL-13" value="javac Compiler" style="edgeStyle=orthogonalEdgeStyle;rounded=0;orthogonalLoop=1;jettySize=auto;html=1;exitX=0.5;exitY=1;exitDx=0;exitDy=0;fontSize=16;fontFamily=Comic Sans MS;" edge="1" parent="1" source="R6XTG78PX4AQXP1k42IL-12" target="R6XTG78PX4AQXP1k42IL-3">
          <mxGeometry relative="1" as="geometry" />
        </mxCell>
        <mxCell id="R6XTG78PX4AQXP1k42IL-12" value="Java Sourcecode" style="rounded=0;whiteSpace=wrap;html=1;sketch=1;fillColor=#e1d5e7;strokeColor=#9673a6;fontSize=16;fontFamily=Comic Sans MS;" vertex="1" parent="1">
          <mxGeometry x="542" y="150" width="120" height="60" as="geometry" />
        </mxCell>
        <mxCell id="R6XTG78PX4AQXP1k42IL-14" value="CPU" style="sketch=0;pointerEvents=1;shadow=0;dashed=0;html=1;strokeColor=none;fillColor=#434445;aspect=fixed;labelPosition=center;verticalLabelPosition=bottom;verticalAlign=top;align=center;outlineConnect=0;shape=mxgraph.vvd.cpu;fontSize=16;fontFamily=Comic Sans MS;" vertex="1" parent="1">
          <mxGeometry x="577" y="510" width="50" height="50" as="geometry" />
        </mxCell>
        <mxCell id="R6XTG78PX4AQXP1k42IL-17" style="edgeStyle=orthogonalEdgeStyle;rounded=0;orthogonalLoop=1;jettySize=auto;html=1;exitX=0.5;exitY=1;exitDx=0;exitDy=0;fontSize=16;fontFamily=Comic Sans MS;" edge="1" parent="1" source="R6XTG78PX4AQXP1k42IL-15" target="R6XTG78PX4AQXP1k42IL-14">
          <mxGeometry relative="1" as="geometry" />
        </mxCell>
        <mxCell id="R6XTG78PX4AQXP1k42IL-15" value="Machinencode" style="rounded=0;whiteSpace=wrap;html=1;sketch=1;fillColor=#ffe6cc;strokeColor=#d79b00;fontSize=16;fontFamily=Comic Sans MS;" vertex="1" parent="1">
          <mxGeometry x="672" y="400" width="120" height="60" as="geometry" />
        </mxCell>
        <mxCell id="R6XTG78PX4AQXP1k42IL-22" value="Interpreter" style="edgeStyle=orthogonalEdgeStyle;rounded=0;orthogonalLoop=1;jettySize=auto;html=1;exitX=0.5;exitY=1;exitDx=0;exitDy=0;fontSize=16;fontFamily=Comic Sans MS;" edge="1" parent="1" source="R6XTG78PX4AQXP1k42IL-20" target="R6XTG78PX4AQXP1k42IL-21">
          <mxGeometry relative="1" as="geometry" />
        </mxCell>
        <mxCell id="R6XTG78PX4AQXP1k42IL-20" value="Python / PHP&lt;br&gt;(klassisch)" style="rounded=0;whiteSpace=wrap;html=1;sketch=1;fillColor=#e1d5e7;strokeColor=#9673a6;fontSize=16;fontFamily=Comic Sans MS;" vertex="1" parent="1">
          <mxGeometry x="42" y="150" width="120" height="60" as="geometry" />
        </mxCell>
        <mxCell id="R6XTG78PX4AQXP1k42IL-21" value="CPU" style="sketch=0;pointerEvents=1;shadow=0;dashed=0;html=1;strokeColor=none;fillColor=#434445;aspect=fixed;labelPosition=center;verticalLabelPosition=bottom;verticalAlign=top;align=center;outlineConnect=0;shape=mxgraph.vvd.cpu;fontSize=16;fontFamily=Comic Sans MS;" vertex="1" parent="1">
          <mxGeometry x="77" y="510" width="50" height="50" as="geometry" />
        </mxCell>
      </root>
    </mxGraphModel>
  </diagram>
</mxfile>
